<svg viewBox="0 0 23 23" xmlns="http://www.w3.org/2000/svg" width="23" height="23">
  <!-- Background -->
  <path d="M 0,0 L 0,23 L 23,23 L 23,0 L 0,0" fill="white"/>

  <!-- Test -->
<path d="
  M9,8 L9,12 L10,12 L10,14 L11,14 L11,15 L10,15 L10,16 L9,16 L9,18
  L14,18 L14,17
  L15,17 L15,14 L14,14 L14,12 L13,12 L13,10
  L14,8 L13,8 L10,8 Z
" fill="#f5c342" stroke="#f5c342" stroke-width="1" stroke-linecap="square"/>

<path d="
  M13,18 L13,20 L14,20 L14,21 L17,21 L17,20 L18,20 L18,18 Z
" fill="#f5c342" stroke="#f5c342" stroke-width="1" stroke-linecap="square"/>

<path d="
  M15,3 L15,7 L16,7 L16,18 L18,18 L18,19 L20,19 L20,18 L21,18 L21,7
  L20,7 L20,5 L19,5 L19,4 L20,4 L20,3 L19,3 L19,2 L16,2 L16,3 Z
" fill="#f5c342" stroke="#f5c342" stroke-width="1" stroke-linecap="square"/>

  <!-- Infill #f5c342 -->
  <path d="
         M1,9 L1,11 L2,11 L2,13 L3,13 L3,16 L2,16 L2,17 L1,17 L1,18 L5,18 L5,15 L6,15 L6,12 L5,12 L5,9 L4,9 L4,8 L2,8 L2,9 Z
         " stroke="#f5c342" stroke-width="1" fill="#f5c342" stroke-linecap="square"/>
  <path d="
         M5,16 L5,19 L9,19 L9,16 L8,16 L8,15 L6,15 
         " stroke="#f5c342" stroke-width="1" fill="#f5c342" stroke-linecap="square"/>
  <path d="
         M7,2 L7,6 L6,6 L6,15 L9,15 L9,16 L10,16 L10,13 L9,13 L9,7 L10,7 L10,7 L11,6 L11,4 L12,6 L12,4 L12,3 L12,2 L11,2 L11,1 L8,1
         " stroke="#f5c342" stroke-width="1" fill="#f5c342" stroke-linecap="square"/>
  <path d="
         M9,8 L9,12 L10,12 L10,14 L11,15 L11,15 L10,16 L9,16 L8,16 L8,18
         M9,17 L9,18 L14,18 L14,17
         M15,16 L15,14
         M14,13 L14,12
         M13,11 L13,10
         M14,9 L14,8
         M13,7 L10,7
         " stroke="#f5c342" stroke-width="1" fill="#f5c342" stroke-linecap="square"/>
  <!-- Hilights #b8912f -->
  <!-- Outlines -->
  <path d="
         M1,9 L1,11
         M2,12 L2,13
         M3,14 L3,15
         M2,16 L2,16
         M1,17 L1,18 L5,18 L5,16
         M6,15 L6,12
         M5,11 L5,9
         M4,8 L2,8
         " stroke="black" stroke-width="1" fill="none" stroke-linecap="square"/>
  <path d="
         M5,16 L5,19 L9,19 L9,16
         M8,15 L6,15
         " stroke="black" stroke-width="1" fill="none" stroke-linecap="square"/>
  <path d="
         M7,2 L7,5
         M6,6 L6,15 L8,15
         M9,16 L10,16 L10,13
         M9,12 L9,8
         M10,7 L10,7
         M11,6 L11,4
         M12,6 L12,4
         M12,3 L12,2
         M11,1 L8,1
         " stroke="black" stroke-width="1" fill="none" stroke-linecap="square"/>
  <path d="
         M9,8 L9,12
         M10,13 L10,14
         M11,15 L11,15
         M10,16 L10,16
         M9,17 L9,18 L14,18 L14,17
         M15,16 L15,14
         M14,13 L14,12
         M13,11 L13,10
         M14,9 L14,8
         M13,7 L10,7
         " stroke="black" stroke-width="1" fill="none" stroke-linecap="square"/>
  <path d="
         M13,18 L13,20
         M14,21 L17,21
         M18,20 L18,18 L14,18
         " stroke="black" stroke-width="1" fill="none" stroke-linecap="square"/>
  <path d="
         M15,3 L15,7
         M16,8 L16,18 L18,18 L18,19 L20,19
         M21,18 L21,7 L20,7 L20,5 L19,5 L19,4 L20,4 L20,3
         M19,2 L16,2
         " stroke="black" stroke-width="1" fill="none" stroke-linecap="square"/>
</svg>
