<svg viewBox="0 0 23 23" xmlns="http://www.w3.org/2000/svg" width="23" height="23">
  <!-- Background -->
  <!-- <path d="M 0,0 h23 v23 h-23 v-23" fill="white"/> -->

  <!-- Infill #f5c342 -->
  <path d="M9,8 v4 h1 v4 h-1 v2 h5 v-2 h1 v-2 h-1 v-2 h-1 v-3 h1 v-1 h-1 v-1 h-3 v1 Z" stroke="#f5c342" fill="#f5c342"/>
  <path d="M1,9 v2 h1 v2 h1 v3 h-1 v1 h-1 v1 h4 v-3 h1 v-3 h-1 v-3 h-1 v-1 h-2 v1 Z" stroke="#f5c342" fill="#f5c342"/>
  <path d="M7,2 v4 h-1 v9 h3 v1 h1 v-3 h-1 v-6 h2 v-3 h1 v-2 h-1 v-1 h-3 v1 Z" stroke="#f5c342" fill="#f5c342"/>
  <path d="M15,3 v4 h1 v11 h2 v1 h2 v-1 h1 v-11 h-1 v-4 h-1 v-1 h-3 v1 Z" stroke="#f5c342" fill="#f5c342"/>
  <path d="M13,18 v2 h1 v1 h3 v-1 h1 v-2 h-4 Z" stroke="#f5c342" fill="#f5c342"/>
  <path d="M5,16 v3 h4 v-3 h-1 v-1 h-2 v1 Z" stroke="#f5c342" fill="#f5c342"/>

  <!-- Hilights #b8912f -->
  <path d="M19,6 v1 m1,1 v10" stroke="#b8912f" stroke-linecap="square"/>
  <path d="M10,10 v2 h1 v2" stroke="#b8912f" stroke-linecap="square"/>
  <path d="M4,11 v1 h1 v2" stroke="#b8912f" stroke-linecap="square"/>
  <path d="M14,19 h3" stroke="#b8912f" stroke-linecap="square"/>
  <path d="M10,8 h3" stroke="#b8912f" stroke-linecap="square"/>
  <path d="M16,3 h3" stroke="#b8912f" stroke-linecap="square"/>
  <path d="M6,16 h2" stroke="#b8912f" stroke-linecap="square"/>
  <path d="M2,9 h2" stroke="#b8912f" stroke-linecap="square"/>
  <path d="M8,2 h3" stroke="#b8912f" stroke-linecap="square"/>

  <!-- Outlines -->
  <path d="M9,8 v4 m1,1 v1 m1,1 v0 m-1,1 v0 m-1,1 v1 h5 v-1 m1,-1 v-2 m-1,-1 v-1 m-1,-1 v-1 m1,-1 v-1 m-1,-1 h-3" stroke="black" fill="none" stroke-linecap="square"/>
  <path d="M7,2 v3 m-1,1 v9 h2 m1,1 h1 v-3 m-1,-1 v-4 m1,-1 v0 m1,-1 v-2 m1,2 v-2 m0,-1 v-1 m-1,-1 h-3" stroke="black" fill="none" stroke-linecap="square"/>
  <path d="M1,9 v2 m1,1 v1 m1,1 v1 m-1,1 v0 m-1,1 v1 h4 v-2 m1,-1 v-3 m-1,-1 v-2 m-1,-1 h-2" stroke="black" fill="none" stroke-linecap="square"/>
  <path d="M15,3 v4 m1,1 v10 h2 v1 h2 m1,-1 v-11 h-1 v-2 h-1 v-1 h1 v-1 m-1,-1 h-3" stroke="black" fill="none" stroke-linecap="square"/>
  <path d="M13,18 v2 m1,1 h3 m1,-1 v-2 h-4" stroke="black" fill="none" stroke-linecap="square"/>
  <path d="M5,16 v3 h4 v-3 m-1,-1 h-2" stroke="black" fill="none" stroke-linecap="square"/>
</svg>
